# xmcd
#
# Track frame offsets:
# 150
# 16575
# 34895
# 55137
# 75542
# 92855
# 108290
# 124060
# 150460
# 162620
# 174537
#
# Disc length: 2532 seconds
#
#
# Revision: 0
# Processed by: cddbd v1.5.1PL0 Copyright (c) Steve Scherf et al.
# Submitted via: FreeRIP 2.942 
#
DISCID=7e09e20b
DTITLE=Derek and the Slammers - Howzyer Slammer hangin´?
DYEAR=1994
DGENRE=Country
TTITLE0=Let the Puppie Breathe
TTITLE1=Pull my Finger
TTITLE2=You don´t have to be cute to be country
TTITLE3=Chicks and more
TTITLE4=Hey Scotty
TTITLE5=Tres Cervesa
TTITLE6=Bass Boat
TTITLE7=Denver
TTITLE8=Mulvaney
TTITLE9=I don´t want to be your boyfriend
TTITLE10=Tres Cervesa (German Version)
EXTD=
EXTT0=
EXTT1=
EXTT2=
EXTT3=
EXTT4=
EXTT5=
EXTT6=
EXTT7=
EXTT8=
EXTT9=
EXTT10=
PLAYORDER=
